<svg xmlns="http://www.w3.org/2000/svg" xmlns:xlink="http://www.w3.org/1999/xlink" version="1.1" id="Layer_1" x="0px" y="0px" style="enable-background:new 0 0 109.9 109.9;" xml:space="preserve" viewBox="29.5 25.5 51.89 58.7">
<style type="text/css">
	.st0{fill:#29313E;}
</style>
<g>
	<path class="st0" d="M81.3,43.1c-0.1-0.6-0.2-1.1-0.3-1.7c-0.8-4.3-3-8.2-6.3-11.1c-6.5-5.7-16-6.4-23.2-1.7   c-3.3,2.1-5.9,5.3-7.3,9c-0.3,0.7-0.1,1.4,0.5,1.8c0.3,0.3,0.8,0.4,1.3,0.3c0.6-0.2,1.1-0.7,1.3-1.3c3.4-8.2,12.8-12,21-8.6   c1.4,0.6,2.8,1.4,4,2.4c6,5.1,7.8,13.9,4.1,20.9c-1.6,2.8-3.5,5.5-5.7,7.8c-2.8,3.3-4.8,7-6.1,11.1c-0.5,1.7-1.2,3.4-2,5   c-1.8,3.1-5.4,4.7-8.9,3.9c-3.5-0.7-6-3.6-6.3-7.1c0-0.1,0-0.2,0-0.3c-0.1-0.7-0.8-1.3-1.5-1.3c-0.4,0-0.8,0.2-1.1,0.5   c-0.3,0.3-0.5,0.7-0.5,1.1c0,0.1,0,0.2,0,0.3c0.3,3.4,2.2,6.5,5,8.3c1.9,1.2,4,1.8,6.1,1.8c3.5,0,6.9-1.6,9.1-4.5l0,0   c1.3-1.8,2.2-3.8,2.8-6c1-3.5,2.7-6.8,4.9-9.7c1.7-2.1,3.4-4.2,4.9-6.3C80.3,53.7,81.8,48.4,81.3,43.1z"/>
	<path class="st0" d="M48.3,63.8L48.3,63.8c-1.6,2.6-0.8,6,1.7,7.6c0.2,0.1,0.3,0.2,0.5,0.3c0.7,0.4,1.6,0.6,2.4,0.6   c0.6,0,1.2-0.1,1.8-0.3c1.4-0.5,2.5-1.4,3.1-2.7c0.3-0.5,0.4-1.1,0.5-1.7c0.2-2.3,1.7-4.1,3.9-4.6c2.1-0.5,4-1.8,5.2-3.6   c2.3-3.2,2.8-7.3,1.3-11c-1.7-4.6-6.4-7.5-11.2-7.1c-0.9,0.1-1.8,0.2-2.7,0.5l0,0l0,0c0-0.2,0-0.4,0.2-0.6c0.9-1.8,2.5-3.2,4.5-3.8   c2-0.6,4-0.4,5.9,0.5c1.3,0.7,2.4,1.7,3.1,3c0.5,1,0.9,2,1,3.1c0.2,0.8,0.9,1.3,1.7,1.1c0.8-0.1,1.4-0.9,1.3-1.7   c-0.1-0.6-0.2-1.2-0.3-1.7c-1.3-4.5-5.3-7.7-10-7.8c-4.4-0.2-8.5,2.4-10.3,6.4c-1.8,4-1.1,8.6,1.9,11.8c1,1.1,1.3,1.1,2.6,0.6   c0.2-0.1,0.5-0.1,0.8-0.1c0.2,0.1,0.4,0.2,0.6,0.5l0,0.1c0.2,0.5,0,1.1-0.5,1.4c0,0-0.1,0-0.1,0.1c0,0-0.1,0-0.1,0   c-0.2,0-0.4,0.1-0.5,0.2c-0.4,0.1-0.7,0.4-0.9,0.8c-0.2,0.4-0.2,0.8-0.1,1.2c0.2,0.7,0.9,1.2,1.6,1.1c2.3-0.2,4-2.2,3.8-4.5   c-0.1-0.7-0.3-1.5-0.7-2.1c-0.9-1.3-2.4-2-4-1.8l-0.2,0c-0.2,0.1-0.5,0-0.6-0.2c-0.7-1-1.1-2.1-1.3-3.3c-0.1-0.3,0.1-0.6,0.4-0.7   c1.5-0.8,3.2-1,4.9-0.8c4.5,0.7,7.5,4.9,6.8,9.4l0,0.1c-0.2,2.6-1.9,4.8-4.3,5.8c-0.6,0.2-1.2,0.4-1.7,0.6   c-2.5,0.7-4.4,2.8-4.9,5.4l-0.1,0.5c-0.1,0.4-0.2,0.8-0.3,1.2c-0.3,1.2-1.5,2-2.7,1.7c-0.8-0.2-1.5-0.8-1.7-1.6   c-0.2-0.7-0.1-1.5,0.3-2.1c0.5-0.7,0.3-1.7-0.5-2.1c0,0-0.1,0-0.1-0.1l0,0C49.7,62.8,48.7,63.1,48.3,63.8z M50.4,63.3l-0.1,0.1l0,0   L50.4,63.3z"/>
	<path class="st0" d="M44.5,49.6c0-0.8-0.7-1.5-1.5-1.5s-1.5,0.7-1.5,1.5v9c0,0.8,0.7,1.5,1.5,1.5s1.5-0.7,1.5-1.5V49.6z"/>
	<path class="st0" d="M37,44.7c-0.8,0-1.5,0.7-1.5,1.5V62c0,0.8,0.7,1.5,1.5,1.5s1.5-0.7,1.5-1.5V46.1C38.5,45.3,37.8,44.7,37,44.7z   "/>
	<path class="st0" d="M31,39.9c-0.8,0-1.5,0.7-1.5,1.5v25.4c0,0.8,0.7,1.5,1.5,1.5s1.5-0.7,1.5-1.5V41.4   C32.5,40.5,31.8,39.9,31,39.9z"/>
</g>
</svg>