<svg xmlns="http://www.w3.org/2000/svg" xmlns:xlink="http://www.w3.org/1999/xlink" version="1.1" id="Layer_1" x="0px" y="0px" style="enable-background:new 0 0 109.9 109.9;" xml:space="preserve" viewBox="29.01 34.03 44.59 41.47">
<style type="text/css">
	.st0{fill:#29313E;}
</style>
<path class="st0" d="M71.9,34.7c-0.5,0-1,0.1-1.3,0.5l-8.7,7.8v-7.2c0-0.7-0.4-1.3-1-1.6c-0.6-0.3-1.4-0.2-1.9,0.2L43.9,45.7H37  c-1.6,0-2.9,1.3-2.9,2.9v12.4c0,1.6,1.3,2.9,2.9,2.9h1.4l-8.8,7.8c-0.7,0.7-0.8,1.8-0.2,2.6c0.3,0.4,0.8,0.6,1.4,0.6  c0.4,0,0.9-0.2,1.2-0.5l41-36.4c0.4-0.3,0.6-0.8,0.6-1.3c0-0.5-0.1-1-0.5-1.3C72.9,35,72.4,34.7,71.9,34.7z M58.2,39.4v6.7l-15.7,14  h-4.7V49.3h6.7c0.4,0,0.8-0.1,1.1-0.4L58.2,39.4z"/>
<path class="st0" d="M60.1,55.3c-1,0-1.8,0.8-1.8,1.8V70l-7.7-6.1c-0.8-0.6-1.9-0.4-2.6,0.4c-0.6,0.8-0.4,1.9,0.4,2.5L59,75.1  c0.3,0.2,0.7,0.4,1.1,0.4c0.3,0,0.6-0.1,0.8-0.2c0.6-0.3,1-0.9,1-1.6V57.2C61.9,56.2,61.1,55.3,60.1,55.3z"/>
</svg>