<svg xmlns="http://www.w3.org/2000/svg" xmlns:xlink="http://www.w3.org/1999/xlink" version="1.1" id="Layer_1" x="0px" y="0px" style="enable-background:new 0 0 109.9 109.9;" xml:space="preserve" viewBox="29.01 33.8 46.49 38.9">
<style type="text/css">
	.st0{fill:#29313E;}
</style>
<path class="st0" d="M29.7,58.3l13.8,13.8c0.4,0.4,1,0.6,1.6,0.6h0.1c0.6,0,1.2-0.3,1.6-0.8L75,37.4c0.4-0.5,0.5-1,0.5-1.6  c-0.1-0.6-0.3-1.1-0.8-1.5s-1-0.5-1.6-0.5c-0.6,0.1-1.1,0.3-1.5,0.8L44.8,67.3l-12-12.1c-0.4-0.4-1-0.6-1.6-0.6  c-0.6,0-1.1,0.2-1.6,0.6C28.8,56.1,28.8,57.5,29.7,58.3z"/>
</svg>