<svg xmlns="http://www.w3.org/2000/svg" xmlns:xlink="http://www.w3.org/1999/xlink" version="1.1" id="Layer_1" x="0px" y="0px" style="enable-background:new 0 0 109.9 109.9;" xml:space="preserve" viewBox="31.7 33.6 52 38.2">
<style type="text/css">
	.st0{fill:#29313E;}
</style>
<path class="st0" d="M77.1,49.9h-1.4c-0.8-9.1-8.5-16.3-17.9-16.3s-17,7.2-17.9,16.3h-1.4c-3.7,0-6.7,3-6.8,6.8v8.3  c0,3.7,3,6.8,6.8,6.8h3.2c1.1,0,2-0.9,2-2V51.9c0-0.1,0-0.2,0-0.4h0c0-7.7,6.3-14,14-14s14,6.3,14,14h0c0,0.1,0,0.2,0,0.4v17.8  c0,1.1,0.9,2,2,2h3.2c3.7,0,6.8-3,6.8-6.8v-8.3C83.8,52.9,80.8,49.9,77.1,49.9z M39.8,67.6h-1.2c-1.5,0-2.7-1.2-2.7-2.7l0-8.3  c0-1.5,1.2-2.7,2.7-2.7h1.2V67.6z M77.1,67.6h-1.2V53.9h1.2c1.5,0,2.7,1.2,2.7,2.7l0,8.3C79.8,66.4,78.6,67.6,77.1,67.6z"/>
</svg>