<svg xmlns="http://www.w3.org/2000/svg" xmlns:xlink="http://www.w3.org/1999/xlink" version="1.1" id="Layer_1" x="0px" y="0px" style="enable-background:new 0 0 109.9 109.9;" xml:space="preserve" viewBox="40.3 33.7 35.1 42.5">
<style type="text/css">
	.st0{fill:#29313E;}
</style>
<path class="st0" d="M74.7,40.5l-7.2-5.9c0,0-0.6-0.5-1-0.7c-0.3-0.1-0.8-0.2-1.1-0.2H41.9c-0.4,0-0.8,0.2-1.1,0.5  c-0.3,0.3-0.5,0.7-0.5,1.1v39.3c0,0.4,0.2,0.8,0.5,1.1c0.3,0.3,0.7,0.5,1.1,0.5h31.9c0.4,0,0.8-0.2,1.1-0.5c0.3-0.3,0.5-0.7,0.5-1.1  V41.8C75.3,41.1,74.8,40.6,74.7,40.5z M64.8,44.2c0.3,0.3,0.7,0.5,1.1,0.5h6.2V73H43.5V36.9h20.9v6.2C64.3,43.5,64.5,44,64.8,44.2z   M67.5,41.5V39l3,2.5H67.5z"/>
<path class="st0" d="M68.1,58.3H47.5c-0.6,0-1.1,0.3-1.4,0.8c-0.3,0.5-0.3,1.1,0,1.6c0.3,0.5,0.8,0.8,1.4,0.8h20.6  c0.6,0,1.1-0.3,1.4-0.8s0.3-1.1,0-1.6S68.7,58.3,68.1,58.3z"/>
<path class="st0" d="M46.1,52.4c-0.3,0.5-0.3,1.1,0,1.6c0.3,0.5,0.8,0.8,1.4,0.8h20.6c0.6,0,1.1-0.3,1.4-0.8c0.3-0.5,0.3-1.1,0-1.6  c-0.3-0.5-0.8-0.8-1.4-0.8H47.5C47,51.6,46.4,51.9,46.1,52.4z"/>
<path class="st0" d="M47.5,48.2h8c0.6,0,1.1-0.3,1.4-0.8c0.3-0.5,0.3-1.1,0-1.6c-0.3-0.5-0.8-0.8-1.4-0.8h-8c-0.6,0-1.1,0.3-1.4,0.8  c-0.3,0.5-0.3,1.1,0,1.6C46.4,47.9,47,48.2,47.5,48.2z"/>
<path class="st0" d="M68.1,64.9H47.5c-0.6,0-1.1,0.3-1.4,0.8c-0.3,0.5-0.3,1.1,0,1.6s0.8,0.8,1.4,0.8h20.6c0.6,0,1.1-0.3,1.4-0.8  c0.3-0.5,0.3-1.1,0-1.6C69.2,65.2,68.7,64.9,68.1,64.9z"/>
</svg>