<svg xmlns="http://www.w3.org/2000/svg" xmlns:xlink="http://www.w3.org/1999/xlink" version="1.1" id="Layer_1" x="0px" y="0px" style="enable-background:new 0 0 109.9 109.9;" xml:space="preserve" viewBox="29.11 25.6 51.79 58.9">
<style type="text/css">
	.st0{fill:#29313E;}
</style>
<g>
	<path class="st0" d="M64.8,72.4c-0.8,0-1.4,0.6-1.5,1.3c0,0.1,0,0.2,0,0.2c-0.3,3.5-2.9,6.4-6.3,7.1c-3.5,0.8-7.1-0.8-8.9-3.9   c-0.9-1.6-1.6-3.3-2.1-5c-1.3-4.1-3.4-7.8-6.1-11.1c-2.2-2.4-4.1-5-5.7-7.8c-3.7-7-2-15.8,4.1-20.9c1.2-1,2.5-1.8,4-2.4   c8.2-3.4,17.6,0.4,21,8.6c0.2,0.6,0.7,1.1,1.3,1.4c0.4,0.1,0.9,0,1.2-0.3c0.6-0.4,0.8-1.2,0.5-1.9c-1.4-3.7-4-6.9-7.3-9   c-7.2-4.7-16.7-4-23.2,1.7c-3.3,2.9-5.5,6.8-6.3,11.1c-0.1,0.6-0.2,1.1-0.3,1.7c-0.5,5.3,1,10.5,4.2,14.8c1.5,2.1,3.1,4.1,4.9,6.3   c2.2,2.9,3.9,6.2,4.9,9.7c0.6,2.1,1.6,4.2,2.9,6c2.2,2.9,5.6,4.5,9.1,4.5c2.1,0,4.2-0.6,6.1-1.8c2.9-1.8,4.8-4.9,5-8.3   c0-0.1,0-0.2,0-0.3c0-0.4-0.2-0.8-0.5-1.1C65.6,72.6,65.2,72.4,64.8,72.4z"/>
	<path class="st0" d="M55.6,41.6c-0.9-0.3-1.8-0.4-2.7-0.5c-4.9-0.4-9.5,2.6-11.2,7.1c-1.5,3.7-1,7.8,1.3,11   c1.2,1.8,3.1,3.1,5.2,3.6c2.2,0.5,3.8,2.4,3.9,4.7c0.1,0.6,0.2,1.2,0.5,1.7c0.6,1.3,1.7,2.3,3.1,2.7c0.6,0.2,1.2,0.3,1.7,0.3   c0.8,0,1.6-0.2,2.4-0.5c0.2-0.1,0.3-0.2,0.5-0.3c2.6-1.6,3.3-5,1.8-7.5l0-0.1c-0.4-0.7-1.3-1-2.1-0.6l0,0c0,0-0.1,0-0.1,0.1   c-0.7,0.5-0.9,1.4-0.5,2.1c0.4,0.6,0.5,1.4,0.3,2.1c-0.2,0.8-0.9,1.4-1.7,1.6c-1.2,0.3-2.5-0.5-2.7-1.7c-0.1-0.4-0.2-0.8-0.3-1.2   c0-0.2-0.1-0.3-0.1-0.5c-0.4-2.6-2.3-4.8-4.8-5.5c-0.6-0.2-1.1-0.4-1.7-0.6c-2.4-1-4.1-3.2-4.3-5.8l0-0.1c-0.7-4.5,2.3-8.7,6.8-9.4   c1.7-0.3,3.3,0,4.9,0.8c0.3,0.1,0.5,0.4,0.4,0.7c-0.2,1.2-0.7,2.3-1.3,3.2c-0.1,0.2-0.4,0.3-0.7,0.2l-0.1,0c-1.5-0.2-3.1,0.5-4,1.8   c-0.4,0.6-0.7,1.3-0.7,2.1c-0.2,2.3,1.5,4.3,3.8,4.5c0.7,0.1,1.4-0.3,1.7-1.1c0.1-0.4,0.1-0.8-0.1-1.2s-0.5-0.6-0.9-0.8   c-0.2-0.1-0.4-0.1-0.6-0.2c0,0-0.1,0-0.1,0c0,0-0.1,0-0.1-0.1c-0.5-0.3-0.7-0.9-0.5-1.4l0,0h0c0.1-0.2,0.3-0.4,0.6-0.5   c0.3-0.1,0.5-0.1,0.8,0.1c1.3,0.6,1.6,0.5,2.6-0.6c3-3.2,3.7-7.8,1.9-11.8c-1.7-4.1-5.9-6.7-10.3-6.4c-4.7,0.2-8.7,3.3-10,7.8   c-0.2,0.6-0.3,1.1-0.3,1.7c-0.1,0.8,0.5,1.6,1.3,1.7c0.8,0.1,1.5-0.4,1.7-1.1c0.2-1.1,0.5-2.1,1-3.1c0.7-1.3,1.8-2.3,3.1-3   c3.8-1.9,8.4-0.5,10.4,3.4C55.6,41.2,55.7,41.4,55.6,41.6L55.6,41.6L55.6,41.6z M60.1,63.4L60.1,63.4l-0.1-0.1L60.1,63.4z"/>
	<path class="st0" d="M67.5,48.1c-0.8,0-1.5,0.7-1.5,1.5v9c0,0.8,0.7,1.5,1.5,1.5s1.5-0.7,1.5-1.5v-9C68.9,48.7,68.3,48.1,67.5,48.1   z"/>
	<path class="st0" d="M73.4,44.7c-0.8,0-1.5,0.7-1.5,1.5V62c0,0.8,0.7,1.5,1.5,1.5s1.5-0.7,1.5-1.5V46.1   C74.9,45.3,74.3,44.7,73.4,44.7z"/>
	<path class="st0" d="M79.4,39.9c-0.8,0-1.5,0.7-1.5,1.5v25.4c0,0.8,0.7,1.5,1.5,1.5s1.5-0.7,1.5-1.5V41.4   C80.9,40.5,80.2,39.9,79.4,39.9z"/>
</g>
</svg>